<svg width="currentSize" height="currentSize" viewBox="0 0 13 14" fill="none" xmlns="http://www.w3.org/2000/svg">
<path d="M7.85669 2.48035L8.82872 1.41992C8.9507 1.2868 9.09553 1.18119 9.25493 1.10914C9.41433 1.03709 9.58518 1 9.75772 1C9.93027 1 10.1011 1.03709 10.2605 1.10914C10.4199 1.18119 10.5648 1.2868 10.6867 1.41992L11.6154 2.43306C11.8617 2.70179 12 3.06622 12 3.4462C12 3.82619 11.8617 4.19061 11.6154 4.45934L10.6434 5.51977M7.85669 2.48035L1.54115 9.36955C1.32309 9.60745 1.18871 9.92146 1.16154 10.2566L1.0026 12.2198C0.994063 12.3242 1.00661 12.4293 1.03936 12.5278C1.07211 12.6263 1.12427 12.7158 1.19215 12.7899C1.26003 12.864 1.34199 12.921 1.43225 12.9568C1.52251 12.9926 1.61887 13.0064 1.71454 12.9972L3.5141 12.8238C3.82175 12.7945 4.1101 12.6479 4.3285 12.4097L10.6434 5.51977M7.85669 2.48035L10.6434 5.51977" stroke="currentColor" stroke-width="1.8" stroke-linecap="round" stroke-linejoin="round"/>
</svg>
