<svg width="currentSize" height="currentSize" viewBox="0 0 15 16" fill="none" xmlns="http://www.w3.org/2000/svg">
<path d="M14 7.5632L7.8539 13.8056C7.10096 14.5704 6.07974 15 5.01492 15C3.9501 15 2.92889 14.5704 2.17594 13.8056C1.423 13.0409 1 12.0037 1 10.9222C1 9.84064 1.423 8.80343 2.17594 8.03868L8.32205 1.79625C8.82401 1.28642 9.50482 1 10.2147 1C10.9246 1 11.6054 1.28642 12.1073 1.79625C12.6093 2.30608 12.8913 2.99756 12.8913 3.71856C12.8913 4.43957 12.6093 5.13105 12.1073 5.64088L5.95456 11.8833C5.83029 12.0095 5.68275 12.1097 5.52038 12.178C5.35801 12.2463 5.18398 12.2814 5.00823 12.2814C4.83248 12.2814 4.65846 12.2463 4.49609 12.178C4.33371 12.1097 4.18618 12.0095 4.06191 11.8833C3.93763 11.7571 3.83905 11.6072 3.7718 11.4423C3.70454 11.2774 3.66993 11.1007 3.66993 10.9222C3.66993 10.7436 3.70454 10.5669 3.7718 10.402C3.83905 10.2371 3.93763 10.0872 4.06191 9.961L9.73986 4.20084"/>
</svg>
