<svg width="currentSize" height="currentSize" viewBox="0 0 14 14" fill="none" xmlns="http://www.w3.org/2000/svg">
<path d="M1 3.66667H13M5.5 6.33333V10.3333M8.5 6.33333V10.3333M1.75 3.66667L2.5 11.6667C2.5 12.0203 2.65804 12.3594 2.93934 12.6095C3.22064 12.8595 3.60218 13 4 13H10C10.3978 13 10.7794 12.8595 11.0607 12.6095C11.342 12.3594 11.5 12.0203 11.5 11.6667L12.25 3.66667M4.75 3.66667V1.66667C4.75 1.48986 4.82902 1.32029 4.96967 1.19526C5.11032 1.07024 5.30109 1 5.5 1H8.5C8.69891 1 8.88968 1.07024 9.03033 1.19526C9.17098 1.32029 9.25 1.48986 9.25 1.66667V3.66667" stroke="currentColor" stroke-width="1.8" stroke-linecap="round" stroke-linejoin="round"/>
</svg>
