<svg xmlns="http://www.w3.org/2000/svg" width="20" height="20" viewBox="0 0 20 20" fill="none">
  <path d="M3.92864 13.2142C5.70384 13.2142 7.14293 11.7751 7.14293 9.99993C7.14293 8.22473 5.70384 6.78564 3.92864 6.78564C2.15344 6.78564 0.714355 8.22473 0.714355 9.99993C0.714355 11.7751 2.15344 13.2142 3.92864 13.2142Z" stroke="black" stroke-linecap="round" stroke-linejoin="round"/>
  <path d="M16.0717 19.286C17.8469 19.286 19.286 17.8469 19.286 16.0717C19.286 14.2966 17.8469 12.8574 16.0717 12.8574C14.2966 12.8574 12.8574 14.2966 12.8574 16.0717C12.8574 17.8469 14.2966 19.286 16.0717 19.286Z" stroke="black" stroke-linecap="round" stroke-linejoin="round"/>
  <path d="M16.0717 7.14293C17.8469 7.14293 19.286 5.70384 19.286 3.92864C19.286 2.15344 17.8469 0.714355 16.0717 0.714355C14.2966 0.714355 12.8574 2.15344 12.8574 3.92864C12.8574 5.70384 14.2966 7.14293 16.0717 7.14293Z" stroke="black" stroke-linecap="round" stroke-linejoin="round"/>
  <path d="M6.80029 8.57171L13.2003 5.35742" stroke="black" stroke-linecap="round" stroke-linejoin="round"/>
  <path d="M6.80029 11.4287L13.2003 14.643" stroke="black" stroke-linecap="round" stroke-linejoin="round"/>
</svg>