<svg width="21" height="18" viewBox="0 0 21 18" fill="none" xmlns="http://www.w3.org/2000/svg">
<path d="M10.5 0C10.3738 1.60708e-05 10.2488 0.0248822 10.1323 0.0731589C10.0158 0.121436 9.91014 0.192164 9.82138 0.28125L0.193892 8.61883C0.133764 8.66287 0.0848944 8.7203 0.0512174 8.7865C0.0175404 8.85271 -2.87098e-06 8.92584 3.5241e-10 9C3.5241e-10 9.12563 0.0502839 9.24611 0.13979 9.33495C0.229296 9.42378 0.350692 9.47368 0.477273 9.47368H2.86364V17.0526C2.86364 17.5756 3.29127 18 3.81818 18H7.63636C8.16327 18 8.59091 17.5756 8.59091 17.0526V11.3684H12.4091V17.0526C12.4091 17.5756 12.8367 18 13.3636 18H17.1818C17.7087 18 18.1364 17.5756 18.1364 17.0526V9.47368H20.5227C20.6493 9.47368 20.7707 9.42378 20.8602 9.33495C20.9497 9.24611 21 9.12563 21 9C21 8.92584 20.9825 8.85271 20.9488 8.7865C20.9151 8.7203 20.8662 8.66287 20.8061 8.61883L11.1842 0.286801C11.1824 0.284943 11.1805 0.283093 11.1786 0.28125C11.0899 0.192164 10.9842 0.121436 10.8677 0.0731589C10.7512 0.0248822 10.6262 1.60708e-05 10.5 0Z" fill="black"/>
</svg>
