<svg width="25" height="25" viewBox="0 0 25 25" fill="none" xmlns="http://www.w3.org/2000/svg">
<path d="M17.2837 20.7122H17.3837" stroke="black" stroke-width="2.5" stroke-linecap="round" stroke-linejoin="round"/>
<path d="M12.3335 21.2122C10.5535 21.2122 8.81341 20.6843 7.33337 19.6954C5.85333 18.7065 4.69977 17.3008 4.01858 15.6563C3.3374 14.0118 3.15917 12.2022 3.50643 10.4563C3.8537 8.71052 4.71087 7.10687 5.96954 5.8482C7.22821 4.58953 8.83186 3.73236 10.5777 3.38509C12.3235 3.03783 14.1331 3.21606 15.7777 3.89725C17.4222 4.57844 18.8278 5.73199 19.8167 7.21203C20.8057 8.69207 21.3335 10.4321 21.3335 12.2122" stroke="black" stroke-width="2" stroke-linecap="round" stroke-linejoin="round"/>
<path d="M17.3335 13.2122V16.2122" stroke="black" stroke-width="2" stroke-linecap="round" stroke-linejoin="round"/>
<path d="M8.3335 12.2122H12.3335V7.21216" stroke="black" stroke-width="2" stroke-linecap="round" stroke-linejoin="round"/>
</svg>
