<svg width="23" height="23" viewBox="0 0 23 23" fill="none" xmlns="http://www.w3.org/2000/svg">
<path d="M15.917 2.73267H6.75033C4.00033 2.73267 2.16699 4.566 2.16699 7.316V12.816C2.16699 15.566 4.00033 17.3993 6.75033 17.3993V19.3518C6.75033 20.0852 7.56616 20.5252 8.17116 20.1127L12.2503 17.3993H15.917C18.667 17.3993 20.5003 15.566 20.5003 12.816V7.316C20.5003 4.566 18.667 2.73267 15.917 2.73267ZM11.3337 13.8885C10.9487 13.8885 10.6462 13.5768 10.6462 13.201C10.6462 12.8252 10.9487 12.5135 11.3337 12.5135C11.7187 12.5135 12.0212 12.8252 12.0212 13.201C12.0212 13.5768 11.7187 13.8885 11.3337 13.8885ZM12.4887 10.0843C12.1312 10.3227 12.0212 10.4785 12.0212 10.7352V10.9277C12.0212 11.3035 11.7095 11.6152 11.3337 11.6152C10.9578 11.6152 10.6462 11.3035 10.6462 10.9277V10.7352C10.6462 9.67183 11.4253 9.14933 11.7187 8.94767C12.0578 8.7185 12.1678 8.56267 12.1678 8.32433C12.1678 7.866 11.792 7.49017 11.3337 7.49017C10.8753 7.49017 10.4995 7.866 10.4995 8.32433C10.4995 8.70017 10.1878 9.01183 9.81199 9.01183C9.43616 9.01183 9.12449 8.70017 9.12449 8.32433C9.12449 7.10517 10.1145 6.11517 11.3337 6.11517C12.5528 6.11517 13.5428 7.10517 13.5428 8.32433C13.5428 9.36933 12.7728 9.89183 12.4887 10.0843Z" fill="#1A1E25"/>
</svg>
