<svg width="20" height="12" viewBox="0 0 20 12" fill="none" xmlns="http://www.w3.org/2000/svg">
<path d="M13.5844 0H10.9C10.65 0 10.4094 0.09375 10.225 0.2625L7.15312 3.075C7.15 3.07812 7.14688 3.08438 7.14375 3.0875C6.625 3.575 6.63438 4.35313 7.07812 4.8375C7.475 5.27187 8.30937 5.3875 8.83125 4.92188C8.83438 4.91875 8.84062 4.91875 8.84375 4.91563L11.3406 2.62813C11.5437 2.44375 11.8625 2.45625 12.0469 2.65938C12.2344 2.8625 12.2188 3.17812 12.0156 3.36562L11.2 4.1125L15.75 7.80625C15.8406 7.88125 15.9219 7.9625 15.9969 8.04688V2L14.2906 0.29375C14.1062 0.10625 13.85 0 13.5844 0ZM17 2.00625V9.00313C17 9.55625 17.4469 10.0031 18 10.0031H20V2.00625H17ZM18.5 9.00313C18.225 9.00313 18 8.77812 18 8.50313C18 8.22813 18.225 8.00313 18.5 8.00313C18.775 8.00313 19 8.22813 19 8.50313C19 8.77812 18.775 9.00313 18.5 9.00313ZM0 10H2C2.55312 10 3 9.55313 3 9V2.00625H0V10ZM1.5 8.00313C1.775 8.00313 2 8.22813 2 8.50313C2 8.77812 1.775 9.00313 1.5 9.00313C1.225 9.00313 1 8.77812 1 8.50313C1 8.225 1.225 8.00313 1.5 8.00313ZM15.1219 8.58438L10.4563 4.79688L9.51875 5.65625C8.59062 6.50313 7.16875 6.42188 6.34062 5.51875C5.5 4.6 5.56563 3.17812 6.47813 2.34062L9.03438 0H6.41563C6.15 0 5.89687 0.10625 5.70937 0.29375L4 2V8.99687H4.57188L7.4 11.5562C8.25625 12.2531 9.51562 12.1219 10.2125 11.2656L10.2188 11.2594L10.7781 11.7437C11.275 12.15 12.0094 12.0719 12.4125 11.575L13.3938 10.3687L13.5625 10.5063C13.9906 10.8531 14.6219 10.7906 14.9688 10.3594L15.2656 9.99375C15.6156 9.5625 15.55 8.93438 15.1219 8.58438Z" fill="black"/>
</svg>
