<svg width="24" height="25" viewBox="0 0 24 25" fill="none" xmlns="http://www.w3.org/2000/svg">
<path d="M18 9.25269L21 12.2527L18 15.2527" stroke="black" stroke-width="2" stroke-linecap="round" stroke-linejoin="round"/>
<path d="M21 12.2527H7M14 16.2527V19.2527C14 19.5179 13.8946 19.7723 13.7071 19.9598C13.5196 20.1473 13.2652 20.2527 13 20.2527H4C3.73478 20.2527 3.48043 20.1473 3.29289 19.9598C3.10536 19.7723 3 19.5179 3 19.2527V5.25269C3 4.98747 3.10536 4.73312 3.29289 4.54558C3.48043 4.35804 3.73478 4.25269 4 4.25269H13C13.2652 4.25269 13.5196 4.35804 13.7071 4.54558C13.8946 4.73312 14 4.98747 14 5.25269V8.25269" stroke="black" stroke-width="2" stroke-linecap="round" stroke-linejoin="round"/>
</svg>
