<svg width="600" height="600" viewBox="0 0 600 600" fill="none" xmlns="http://www.w3.org/2000/svg">
<path d="M300 540C432.548 540 540 432.548 540 300C540 167.452 432.548 60 300 60C167.452 60 60 167.452 60 300C60 432.548 167.452 540 300 540Z" fill="#E8E8E8" stroke="black" stroke-width="10" stroke-miterlimit="10" stroke-linecap="round" stroke-dasharray="30 30"/>
<path d="M237.391 268.696C237.391 274.887 235.555 280.94 232.115 286.087C228.675 291.235 223.786 295.248 218.066 297.617C212.346 299.987 206.052 300.606 199.979 299.399C193.907 298.191 188.329 295.209 183.951 290.831C179.573 286.453 176.592 280.875 175.384 274.803C174.176 268.73 174.796 262.436 177.165 256.716C179.534 250.996 183.547 246.107 188.695 242.667C193.843 239.227 199.895 237.391 206.087 237.391C214.388 237.394 222.349 240.694 228.219 246.564C234.089 252.434 237.388 260.394 237.391 268.696Z" fill="black"/>
<path d="M425.217 268.696C425.217 274.887 423.381 280.94 419.941 286.087C416.502 291.235 411.613 295.248 405.892 297.617C400.172 299.987 393.878 300.606 387.806 299.399C381.733 298.191 376.155 295.209 371.777 290.831C367.399 286.453 364.418 280.875 363.21 274.803C362.002 268.73 362.622 262.436 364.991 256.716C367.361 250.996 371.373 246.107 376.521 242.667C381.669 239.227 387.721 237.391 393.913 237.391C402.214 237.394 410.175 240.694 416.045 246.564C421.915 252.434 425.214 260.394 425.217 268.696Z" fill="black"/>
<path d="M237.391 381.789H362.608" stroke="black" stroke-width="10" stroke-miterlimit="10" stroke-linecap="round"/>
</svg>
