<svg xmlns="http://www.w3.org/2000/svg" width="120" height="120" viewBox="0 0 512 512"><path fill="#D8B5DD" d="M255.9 35C134 35 35.2 133.8 35.2 255.6c0 2.8.1 5.6.2 8.5c-12.8 1.7-22.8 12.6-22.8 25.9c0 14.5 11.7 26.2 26.2 26.2h4.8C70 408.6 155 476.3 255.9 476.3c121.8 0 220.6-98.8 220.6-220.6C476.5 133.8 377.7 35 255.9 35z"/><path fill="#B291B7" d="M476.3 264.1c.1-2.8.2-5.6.2-8.5c0-58.9-23.1-112.4-60.8-152c21.3 34.5 33.6 75.2 33.6 118.8c0 125.2-101.5 226.6-226.7 226.6c-43.6 0-84.2-12.3-118.8-33.6c39.6 37.7 93.1 60.9 152 60.9c100.8 0 185.8-67.7 212.1-160.1h4.8c14.5 0 26.2-11.7 26.2-26.2c.1-13.4-9.8-24.2-22.6-25.9z"/><path fill="#78577D" d="M408.9 157.4c-2.1 0-4.2-.9-5.8-2.6c-13.2-15-31.6-19.2-48-11c-3.8 1.9-8.4.3-10.3-3.5c-1.9-3.8-.3-8.4 3.5-10.3c22.9-11.4 48.3-5.8 66.4 14.6c2.8 3.2 2.5 8-.7 10.9c-1.4 1.2-3.3 1.9-5.1 1.9zm-300.6 0c-1.8 0-3.6-.6-5.1-1.9c-3.2-2.8-3.5-7.7-.7-10.9c18.1-20.4 43.5-26 66.4-14.6c3.8 1.9 5.4 6.5 3.5 10.3c-1.9 3.8-6.5 5.4-10.3 3.5c-16.4-8.1-34.8-3.9-48 11c-1.6 1.7-3.7 2.6-5.8 2.6z"/><path fill="#2B3B47" d="M180.2 192.2c-5.1-5.1-13.3-5.1-18.4 0l-18.1 18.1l-18.1-18.1c-5.1-5.1-13.3-5.1-18.4 0c-5.1 5.1-5.1 13.3 0 18.4l18.1 18.1l-18.1 18.1c-5.1 5.1-5.1 13.3 0 18.4c2.5 2.5 5.9 3.8 9.2 3.8s6.7-1.3 9.2-3.8l18.1-18.1l18.1 18.1c2.5 2.5 5.9 3.8 9.2 3.8s6.7-1.3 9.2-3.8c5.1-5.1 5.1-13.3 0-18.4l-18.1-18.1l18.1-18.1c5-5 5-13.3 0-18.4zM392 228.8l18.1-18.1c5.1-5.1 5.1-13.3 0-18.4c-5.1-5.1-13.3-5.1-18.4 0l-18.1 18.1l-18.1-18.1c-5.1-5.1-13.3-5.1-18.4 0c-5.1 5.1-5.1 13.3 0 18.4l18.1 18.1l-18.2 18.1c-5.1 5.1-5.1 13.3 0 18.4c2.5 2.5 5.9 3.8 9.2 3.8s6.7-1.3 9.2-3.8l18.1-18.1l18.1 18.1c2.5 2.5 5.9 3.8 9.2 3.8c3.3 0 6.7-1.3 9.2-3.8c5.1-5.1 5.1-13.3 0-18.4l-18-18.1z"/><path fill="#FFB636" d="M350.2 73.7c14.2 3.6 25.3 14.7 28.9 28.9c.3 1.4 2.1 1.4 2.4 0c3.6-14.2 14.7-25.3 28.9-28.9c1.4-.3 1.4-2.1 0-2.4c-14.2-3.6-25.3-14.7-28.9-28.9c-.3-1.4-2.1-1.4-2.4 0c-3.6 14.2-14.7 25.3-28.9 28.9c-1.4.3-1.4 2.1 0 2.4zM73.4 48.6c11.3 2.9 20.3 11.8 23.1 23.1c.3 1.1 1.7 1.1 2 0c2.9-11.3 11.8-20.3 23.1-23.1c1.1-.3 1.1-1.7 0-2c-11.3-2.9-20.3-11.8-23.1-23.1c-.3-1.1-1.7-1.1-2 0c-2.9 11.3-11.8 20.3-23.1 23.1c-1.1.3-1.1 1.7 0 2zm111.4 31.3c14.2 3.6 25.3 14.7 28.9 28.9c.3 1.4 2.1 1.4 2.4 0c3.6-14.2 14.7-25.3 28.9-28.9c1.4-.3 1.4-2.1 0-2.4c-14.2-3.6-25.3-14.7-28.9-28.9c-.3-1.4-2.1-1.4-2.4 0c-3.6 14.2-14.7 25.3-28.9 28.9c-1.4.3-1.4 2.1 0 2.4z"/><path fill="#2B3B47" d="M303 348.3s-1.1 1.3-3 3.5c-.5.5-1 1.1-1.7 1.8c-1 .7-2.1 1.5-3.3 2.3c-1.3.8-2.6 1.6-4 2.5c-1.4.8-2.8 1.2-4.4 1.8c-1.5.5-3.1 1.3-4.9 1.7c-1.7.4-3.6.6-5.4.9c-3.8.7-7.8.4-12 .1c-4.1-.8-8.5-1.4-12.6-3.5c-2.1-.9-4.2-1.7-6-3.1l-2.9-1.9l-1.4-1l-.7-.5l-.4-.2l-.2-.1l-.1-.1c.5.4-1.1-.8 1 .8c-2.4-1.7-6-4.5-6.6-4.2c-.8-.6-2.9-1.3-4.7-2c-.9-.3-1.9-.3-2.8-.6c-.9-.3-1.9-.5-2.8-.5c-1.8-.1-3.6-.4-5.3-.2c-1.7 0-3.3.2-4.7.5c-1.4.2-2.8.4-3.7.8c-2.1.6-3.5.9-3.5.9l-2.9.6c-4.9 1-9.7-2.2-10.7-7.1c-.6-2.8.3-5.6 1.9-7.6c0 0 1.3-1.6 4-4.2c1.3-1.4 3.1-2.8 5.3-4.1c1.1-.7 2.3-1.4 3.6-2.2c1.3-.7 2.8-1.2 4.3-1.8c1.5-.5 3.1-1.3 4.9-1.7c1.7-.4 3.6-.6 5.4-.9c3.8-.7 7.8-.4 12-.1c4.1.9 8.3 1.3 13.2 3.8c5.6 2.4 7 4 10 5.8l3.5 2.5c.7.7 1.7 1 2.5 1.4c1.7 1 3.5 1.6 5.3 2.3c.9.3 1.9.3 2.8.6c.9.3 1.9.5 2.8.5c1.8.1 3.6.4 5.3.2c.8 0 1.6 0 2.4-.1c.6-.1 1.2-.1 1.8-.1c.6 0 1.2-.1 1.7 0c.7-.2 1.5-.6 2.2-.8c2.7-1 4.4-1.6 4.4-1.6c5.1-1.6 10.4 1.3 12 6.3c1 2.9.3 6.2-1.6 8.6z"/><path fill="#78577D" d="M254.9 403.6c-8.5 0-16.9-1.9-24.8-5.6c-4.1-1.9-5.8-6.8-3.9-10.9c1.9-4.1 6.8-5.8 10.9-3.9c11.7 5.5 25.1 5.3 36.9-.5c4-2 8.9-.4 11 3.7c2 4 .4 8.9-3.7 11c-8.4 4.1-17.4 6.2-26.4 6.2z"/></svg>