<svg xmlns="http://www.w3.org/2000/svg" width="130" height="130" viewBox="0 0 512 512"><path fill="#D8B5DD" d="M255.9 35.4C134 35.4 35.2 134.2 35.2 256c0 3.3.1 6.6.2 9.9c-12.8 1.7-22.8 12.6-22.8 25.9c0 14.5 11.7 26.2 26.2 26.2H44c26.8 91.7 111.4 158.7 211.7 158.7c121.8 0 220.6-98.8 220.6-220.6c.2-121.9-98.6-220.7-220.4-220.7z"/><path fill="#B291B7" d="M476.2 265.8c.1-3.3.2-6.5.2-9.8c0-58.9-23.1-112.5-60.8-152c21.3 34.5 33.6 75.2 33.6 118.8c0 125.2-101.5 226.7-226.7 226.7c-43.6 0-84.2-12.3-118.8-33.6c39.6 37.7 93.1 60.8 152 60.8c100.3 0 185-67 211.7-158.7h5.2c14.5 0 26.2-11.7 26.2-26.2c.2-13.4-9.7-24.3-22.6-26z"/>
<path fill="#78577D" d="M180.2 192.2c-5.1-5.1-13.3-5.1-18.4 0l-18.1 18.1l-18.1-18.1c-5.1-5.1-13.3-5.1-18.4 0c-5.1 5.1-5.1 13.3 0 18.4l18.1 18.1l-18.1 18.1c-5.1 5.1-5.1 13.3 0 18.4c2.5 2.5 5.9 3.8 9.2 3.8s6.7-1.3 9.2-3.8l18.1-18.1l18.1 18.1c2.5 2.5 5.9 3.8 9.2 3.8s6.7-1.3 9.2-3.8c5.1-5.1 5.1-13.3 0-18.4l-18.1-18.1l18.1-18.1c5-5 5-13.3 0-18.4zM392 228.8l18.1-18.1c5.1-5.1 5.1-13.3 0-18.4c-5.1-5.1-13.3-5.1-18.4 0l-18.1 18.1l-18.1-18.1c-5.1-5.1-13.3-5.1-18.4 0c-5.1 5.1-5.1 13.3 0 18.4l18.1 18.1l-18.2 18.1c-5.1 5.1-5.1 13.3 0 18.4c2.5 2.5 5.9 3.8 9.2 3.8s6.7-1.3 9.2-3.8l18.1-18.1l18.1 18.1c2.5 2.5 5.9 3.8 9.2 3.8c3.3 0 6.7-1.3 9.2-3.8c5.1-5.1 5.1-13.3 0-18.4l-18-18.1z"/><path fill="#FFB636" d="M350.2 73.7c14.2 3.6 25.3 14.7 28.9 28.9c.3 1.4 2.1 1.4 2.4 0c3.6-14.2 14.7-25.3 28.9-28.9c1.4-.3 1.4-2.1 0-2.4c-14.2-3.6-25.3-14.7-28.9-28.9c-.3-1.4-2.1-1.4-2.4 0c-3.6 14.2-14.7 25.3-28.9 28.9c-1.4.3-1.4 2.1 0 2.4zM73.4 48.6c11.3 2.9 20.3 11.8 23.1 23.1c.3 1.1 1.7 1.1 2 0c2.9-11.3 11.8-20.3 23.1-23.1c1.1-.3 1.1-1.7 0-2c-11.3-2.9-20.3-11.8-23.1-23.1c-.3-1.1-1.7-1.1-2 0c-2.9 11.3-11.8 20.3-23.1 23.1c-1.1.3-1.1 1.7 0 2zm111.4 31.3c14.2 3.6 25.3 14.7 28.9 28.9c.3 1.4 2.1 1.4 2.4 0c3.6-14.2 14.7-25.3 28.9-28.9c1.4-.3 1.4-2.1 0-2.4c-14.2-3.6-25.3-14.7-28.9-28.9c-.3-1.4-2.1-1.4-2.4 0c-3.6 14.2-14.7 25.3-28.9 28.9c-1.4.3-1.4 2.1 0 2.4z"/></svg>