<?xml version="1.0" encoding="UTF-8"?>
<svg id="Layer_2" data-name="Layer 2" xmlns="http://www.w3.org/2000/svg" viewBox="0 0 222.95 83.01">
  <defs>
    <style>
      .cls-1 {
        fill: var(--color-text);
        stroke-width: 0px;
      }
    </style>
  </defs>
  <g id="Layer_1-2" data-name="Layer 1">
    <g>
      <path class="cls-1" d="M24.61,56.35h3.96c.94,0,1.67-.08,2.17-.24.5-.16.76-.54.76-1.12,0-.16,0-.3-.02-.42-.02-.11-.07-.28-.17-.51h-14.79c-2.9,0-5.38-.46-7.45-1.37-2.07-.91-3.78-2.16-5.13-3.76-1.35-1.59-2.34-3.45-2.98-5.57-.63-2.12-.95-4.39-.95-6.84,0-1.14.05-2.3.15-3.49.1-1.19.28-2.38.54-3.59,2.77-2.38,5.23-4.73,7.4-7.06,2.16-2.33,4.17-4.68,6.01-7.06,1.84-2.38,3.56-4.79,5.18-7.23s3.26-4.96,4.96-7.57h12.45c1.99,0,3.82.28,5.52.83,1.69.55,3.16,1.36,4.39,2.42,1.24,1.06,2.2,2.34,2.88,3.86s1.03,3.25,1.03,5.2v18.65h-1.03c-.75,0-1.29.14-1.61.42-.33.28-.49.69-.49,1.25v.63h7.86c.52,1.3.94,2.82,1.25,4.57.31,1.74.46,3.49.46,5.25,0,1.17-.12,2.32-.37,3.44s-.63,2.14-1.15,3.05c-.52.91-1.19,1.7-2,2.37-.81.67-1.81,1.13-2.98,1.39v7.47c-1.86,1.33-3.96,2.33-6.32,2.98-2.36.65-4.76.98-7.2.98-2.28,0-4.48-.3-6.62-.9-2.13-.6-4.03-1.52-5.69-2.76v-5.27ZM24.12,34.57h5.22v-6.54h-1.07c-.46.91-1.01,1.85-1.66,2.81-.65.96-1.48,1.9-2.49,2.81v.93Z"/>
      <path class="cls-1" d="M111.08,23.19c0,2.47-.37,4.83-1.12,7.06-.75,2.23-1.93,4.25-3.54,6.05s-3.67,3.39-6.18,4.74c-2.51,1.35-5.53,2.38-9.08,3.1,0,.68.16,1.16.49,1.44.33.28.72.42,1.17.42.85,0,1.88-.15,3.1-.44s2.47-.72,3.76-1.27c1.29-.55,2.54-1.21,3.76-1.98,1.22-.76,2.27-1.62,3.15-2.56,1.56,1.56,2.73,3.43,3.49,5.62.76,2.18,1.15,4.43,1.15,6.74s-.36,4.41-1.07,6.49c-.72,2.08-1.81,3.86-3.27,5.32h-43.9c-2.51-3.71-3.76-7.93-3.76-12.65,0-1.95.21-3.91.63-5.88.42-1.97,1.09-3.75,2-5.35,3.03-.59,6.05-1.46,9.06-2.61,3.01-1.16,5.71-2.49,8.11-4s4.34-3.18,5.83-5c1.5-1.82,2.25-3.69,2.25-5.62,0-.94-.21-1.73-.63-2.37-.42-.63-1.04-.95-1.86-.95-.91,0-1.54.29-1.88.85-.34.57-.51,1.18-.51,1.83s.15,1.3.44,1.95c.29.65.72,1.17,1.27,1.56-.88,1.3-1.99,2.51-3.32,3.64-1.33,1.12-2.78,2.15-4.32,3.08-1.55.93-3.14,1.74-4.79,2.44-1.64.7-3.21,1.26-4.71,1.68-2.8-1.86-4.95-4.11-6.45-6.76-1.5-2.65-2.25-5.66-2.25-9.01s.7-6.27,2.1-8.86c1.4-2.59,3.29-4.76,5.66-6.52,2.38-1.76,5.14-3.09,8.3-4,3.16-.91,6.48-1.37,9.96-1.37,3.68,0,7.15.5,10.42,1.51,3.27,1.01,6.13,2.5,8.57,4.47,2.44,1.97,4.38,4.39,5.81,7.28,1.43,2.88,2.15,6.19,2.15,9.94Z"/>
      <path class="cls-1" d="M137.94,48.73c-.03.07-.07.18-.1.34-.03.16-.05.33-.05.49,0,.68.5,1.16,1.49,1.42.99.26,2.32.39,3.98.39,2.41,0,4.77-.2,7.08-.61,2.31-.41,4.28-.95,5.91-1.64,1.95.52,3.6,1.31,4.93,2.37,1.33,1.06,2.42,2.25,3.27,3.59.85,1.33,1.46,2.77,1.83,4.3.37,1.53.56,3.04.56,4.54,0,3.09-.68,5.83-2.05,8.2-1.37,2.38-3.28,4.37-5.74,5.98-2.46,1.61-5.4,2.83-8.81,3.66s-7.16,1.25-11.23,1.25-7.63-.38-10.67-1.15c-3.04-.77-5.58-1.81-7.62-3.12-2.03-1.32-3.56-2.85-4.57-4.59-1.01-1.74-1.51-3.61-1.51-5.59,0-.88.11-1.72.32-2.51.21-.8.49-1.54.83-2.22s.73-1.28,1.17-1.78c.44-.5.9-.89,1.39-1.15,1.53,1.3,3.86,2.39,6.98,3.27s6.92,1.32,11.38,1.32c2.47,0,4.18-.12,5.13-.37.94-.24,1.42-.71,1.42-1.39,0-.23-.03-.42-.1-.56-.07-.15-.13-.28-.2-.42-.78.16-1.76.29-2.93.39s-2.23.15-3.17.15c-2.77,0-5.44-.2-8.01-.61-2.57-.41-4.84-1.1-6.81-2.08-1.97-.98-3.55-2.25-4.74-3.83-1.19-1.58-1.78-3.54-1.78-5.88,0-1.59.33-3.13.98-4.61.65-1.48,1.68-2.6,3.08-3.34-.75-.46-1.51-1.07-2.27-1.83-.77-.76-1.46-1.7-2.08-2.81-.62-1.11-1.12-2.38-1.51-3.81-.39-1.43-.59-3.06-.59-4.88,0-3.19.63-6.04,1.9-8.54,1.27-2.51,3.03-4.62,5.27-6.35,2.25-1.73,4.92-3.04,8.01-3.96,3.09-.91,6.46-1.37,10.11-1.37,2.08,0,4.02.19,5.81.56,1.79.37,3.34.79,4.64,1.25v-3.42c.75-.29,1.77-.55,3.05-.78,1.29-.23,2.69-.34,4.22-.34s2.95.11,4.25.34c1.3.23,2.42.65,3.37,1.27.94.62,1.68,1.48,2.22,2.59.54,1.11.81,2.54.81,4.3,0,.81-.05,1.6-.15,2.37-.1.77-.28,1.52-.54,2.27-.36,1.07-.86,2.15-1.51,3.22.42,1.04.74,2.18.95,3.42.21,1.24.32,2.77.32,4.59,0,2.96-.55,5.57-1.66,7.84-1.11,2.26-2.65,4.16-4.64,5.69-1.99,1.53-4.36,2.69-7.13,3.47-2.77.78-5.83,1.17-9.18,1.17-1.04,0-2.07-.05-3.08-.15-1.01-.1-1.76-.2-2.25-.29ZM141.46,29.39c0-.55-.11-.98-.32-1.29-.21-.31-.55-.46-1-.46-.33,0-.61.11-.85.32-.24.21-.37.59-.37,1.15v5.03c.29.23.62.34.98.34.72,0,1.16-.22,1.32-.66.16-.44.24-1.13.24-2.08v-2.34Z"/>
      <path class="cls-1" d="M194.04,48.73c-.03.07-.07.18-.1.34-.03.16-.05.33-.05.49,0,.68.5,1.16,1.49,1.42.99.26,2.32.39,3.98.39,2.41,0,4.77-.2,7.08-.61,2.31-.41,4.28-.95,5.91-1.64,1.95.52,3.6,1.31,4.93,2.37,1.33,1.06,2.42,2.25,3.27,3.59.85,1.33,1.46,2.77,1.83,4.3.37,1.53.56,3.04.56,4.54,0,3.09-.68,5.83-2.05,8.2-1.37,2.38-3.28,4.37-5.74,5.98-2.46,1.61-5.4,2.83-8.81,3.66s-7.16,1.25-11.23,1.25-7.63-.38-10.67-1.15c-3.04-.77-5.58-1.81-7.62-3.12-2.03-1.32-3.56-2.85-4.57-4.59-1.01-1.74-1.51-3.61-1.51-5.59,0-.88.11-1.72.32-2.51.21-.8.49-1.54.83-2.22s.73-1.28,1.17-1.78c.44-.5.9-.89,1.39-1.15,1.53,1.3,3.86,2.39,6.98,3.27s6.92,1.32,11.38,1.32c2.47,0,4.18-.12,5.13-.37.94-.24,1.42-.71,1.42-1.39,0-.23-.03-.42-.1-.56-.07-.15-.13-.28-.2-.42-.78.16-1.76.29-2.93.39s-2.23.15-3.17.15c-2.77,0-5.44-.2-8.01-.61-2.57-.41-4.84-1.1-6.81-2.08-1.97-.98-3.55-2.25-4.74-3.83-1.19-1.58-1.78-3.54-1.78-5.88,0-1.59.33-3.13.98-4.61.65-1.48,1.68-2.6,3.08-3.34-.75-.46-1.51-1.07-2.27-1.83-.77-.76-1.46-1.7-2.08-2.81-.62-1.11-1.12-2.38-1.51-3.81-.39-1.43-.59-3.06-.59-4.88,0-3.19.63-6.04,1.9-8.54,1.27-2.51,3.03-4.62,5.27-6.35,2.25-1.73,4.92-3.04,8.01-3.96,3.09-.91,6.46-1.37,10.11-1.37,2.08,0,4.02.19,5.81.56,1.79.37,3.34.79,4.64,1.25v-3.42c.75-.29,1.77-.55,3.05-.78,1.29-.23,2.69-.34,4.22-.34s2.95.11,4.25.34c1.3.23,2.42.65,3.37,1.27.94.62,1.68,1.48,2.22,2.59.54,1.11.81,2.54.81,4.3,0,.81-.05,1.6-.15,2.37-.1.77-.28,1.52-.54,2.27-.36,1.07-.86,2.15-1.51,3.22.42,1.04.74,2.18.95,3.42.21,1.24.32,2.77.32,4.59,0,2.96-.55,5.57-1.66,7.84-1.11,2.26-2.65,4.16-4.64,5.69-1.99,1.53-4.36,2.69-7.13,3.47-2.77.78-5.83,1.17-9.18,1.17-1.04,0-2.07-.05-3.08-.15-1.01-.1-1.76-.2-2.25-.29ZM197.56,29.39c0-.55-.11-.98-.32-1.29-.21-.31-.55-.46-1-.46-.33,0-.61.11-.85.32-.24.21-.37.59-.37,1.15v5.03c.29.23.62.34.98.34.72,0,1.16-.22,1.32-.66.16-.44.24-1.13.24-2.08v-2.34Z"/>
    </g>
  </g>
</svg>