<svg width="23" height="23" viewBox="0 0 23 23" fill="none" xmlns="http://www.w3.org/2000/svg">
<path d="M20.5003 7.77951C20.5003 8.38451 20.0053 8.87951 19.4003 8.87951H3.26699C2.66199 8.87951 2.16699 8.38451 2.16699 7.77951V7.77034C2.16699 5.67117 3.86283 3.97534 5.96199 3.97534H16.6962C18.7953 3.97534 20.5003 5.68034 20.5003 7.77951Z" fill="#1A1E25"/>
<path d="M2.16699 11.3544V15.9469C2.16699 18.0461 3.86283 19.7419 5.96199 19.7419H16.6962C18.7953 19.7419 20.5003 18.0369 20.5003 15.9377V11.3544C20.5003 10.7494 20.0053 10.2544 19.4003 10.2544H3.26699C2.66199 10.2544 2.16699 10.7494 2.16699 11.3544ZM7.66699 16.6711H5.83366C5.45783 16.6711 5.14616 16.3594 5.14616 15.9836C5.14616 15.6077 5.45783 15.2961 5.83366 15.2961H7.66699C8.04283 15.2961 8.35449 15.6077 8.35449 15.9836C8.35449 16.3594 8.04283 16.6711 7.66699 16.6711ZM13.6253 16.6711H9.95866C9.58283 16.6711 9.27116 16.3594 9.27116 15.9836C9.27116 15.6077 9.58283 15.2961 9.95866 15.2961H13.6253C14.0012 15.2961 14.3128 15.6077 14.3128 15.9836C14.3128 16.3594 14.0012 16.6711 13.6253 16.6711Z" fill="#1A1E25"/>
</svg>
