<svg width="25" height="25" viewBox="0 0 25 25" fill="none" xmlns="http://www.w3.org/2000/svg">
<path d="M8.3335 6.15112H20.3335C20.5987 6.15112 20.8531 6.25648 21.0406 6.44402C21.2281 6.63155 21.3335 6.88591 21.3335 7.15112V15.1511L15.3335 21.1511H8.3335C8.06828 21.1511 7.81393 21.0458 7.62639 20.8582C7.43885 20.6707 7.3335 20.4163 7.3335 20.1511V7.15112" stroke="black" stroke-width="2" stroke-linecap="round" stroke-linejoin="round"/>
<path d="M10.3335 9.15112L7.7435 6.56112M14.3335 16.1511L15.3335 21.1511L21.3335 15.1511L14.3335 16.1511ZM4.3335 5.15112C4.3335 5.68156 4.54421 6.19026 4.91928 6.56534C5.29436 6.94041 5.80306 7.15112 6.3335 7.15112C6.86393 7.15112 7.37264 6.94041 7.74771 6.56534C8.12278 6.19026 8.3335 5.68156 8.3335 5.15112C8.3335 4.62069 8.12278 4.11198 7.74771 3.73691C7.37264 3.36184 6.86393 3.15112 6.3335 3.15112C5.80306 3.15112 5.29436 3.36184 4.91928 3.73691C4.54421 4.11198 4.3335 4.62069 4.3335 5.15112Z" stroke="black" stroke-width="2" stroke-linecap="round" stroke-linejoin="round"/>
</svg>
