<svg width="23" height="23" viewBox="0 0 23 23" fill="none" xmlns="http://www.w3.org/2000/svg">
<path d="M18.7689 8.50194C17.1097 8.50194 16.4314 7.32861 17.2564 5.88944C17.7331 5.05528 17.4489 3.99194 16.6147 3.51528L15.0289 2.60778C14.3047 2.17694 13.3697 2.43361 12.9389 3.15778L12.8381 3.33194C12.0131 4.77111 10.6564 4.77111 9.82225 3.33194L9.72141 3.15778C9.30891 2.43361 8.37391 2.17694 7.64975 2.60778L6.06391 3.51528C5.22975 3.99194 4.94558 5.06444 5.42225 5.89861C6.25641 7.32861 5.57808 8.50194 3.91891 8.50194C2.96558 8.50194 2.17725 9.28111 2.17725 10.2436V11.8569C2.17725 12.8103 2.95641 13.5986 3.91891 13.5986C5.57808 13.5986 6.25641 14.7719 5.42225 16.2111C4.94558 17.0453 5.22975 18.1086 6.06391 18.5853L7.64975 19.4928C8.37391 19.9236 9.30891 19.6669 9.73975 18.9428L9.84058 18.7686C10.6656 17.3294 12.0222 17.3294 12.8564 18.7686L12.9572 18.9428C13.3881 19.6669 14.3231 19.9236 15.0472 19.4928L16.6331 18.5853C17.4672 18.1086 17.7514 17.0361 17.2747 16.2111C16.4406 14.7719 17.1189 13.5986 18.7781 13.5986C19.7314 13.5986 20.5197 12.8194 20.5197 11.8569V10.2436C20.5106 9.29027 19.7314 8.50194 18.7689 8.50194ZM11.3439 14.0294C9.70308 14.0294 8.36475 12.6911 8.36475 11.0503C8.36475 9.40944 9.70308 8.07111 11.3439 8.07111C12.9847 8.07111 14.3231 9.40944 14.3231 11.0503C14.3231 12.6911 12.9847 14.0294 11.3439 14.0294Z" fill="#292D32"/>
</svg>
