<svg width="25" height="25" viewBox="0 0 25 25" fill="none" xmlns="http://www.w3.org/2000/svg">
<path d="M12.3335 20.3638C11.1468 20.3638 9.98677 20.0119 9.00008 19.3526C8.01338 18.6933 7.24435 17.7562 6.79022 16.6599C6.3361 15.5635 6.21728 14.3571 6.44879 13.1932C6.6803 12.0293 7.25174 10.9602 8.09086 10.1211C8.92997 9.28202 9.99907 8.71057 11.163 8.47906C12.3268 8.24755 13.5332 8.36637 14.6296 8.8205C15.726 9.27462 16.663 10.0437 17.3223 11.0304C17.9816 12.017 18.3335 13.1771 18.3335 14.3638C18.3335 15.9551 17.7014 17.4812 16.5761 18.6064C15.4509 19.7316 13.9248 20.3638 12.3335 20.3638ZM11.7135 13.7638L10.3335 13.9538L11.3335 14.8438L11.0935 16.1138L12.3335 15.5138L13.5735 16.1138L13.3335 14.8438L14.3335 13.9538L12.9535 13.7638L12.3335 12.6138L11.7135 13.7638Z" stroke="black" stroke-width="2" stroke-linecap="round" stroke-linejoin="round"/>
<path d="M15.9035 9.42377L18.3335 3.36377H14.3335L12.3735 8.27377" stroke="black" stroke-width="2" stroke-linecap="round" stroke-linejoin="round"/>
<path d="M12.2935 8.27377L10.3335 3.36377H6.3335L8.7635 9.42377" stroke="black" stroke-width="2" stroke-linecap="round" stroke-linejoin="round"/>
</svg>
