<svg width="23" height="23" viewBox="0 0 23 23" fill="none" xmlns="http://www.w3.org/2000/svg">
<path d="M11.3337 2.77271C8.93199 2.77271 6.97949 4.72521 6.97949 7.12687C6.97949 9.4827 8.82199 11.3894 11.2237 11.4719C11.297 11.4627 11.3703 11.4627 11.4253 11.4719C11.4437 11.4719 11.4528 11.4719 11.4712 11.4719C11.4803 11.4719 11.4803 11.4719 11.4895 11.4719C13.8362 11.3894 15.6787 9.4827 15.6878 7.12687C15.6878 4.72521 13.7353 2.77271 11.3337 2.77271Z" fill="#1A1E25"/>
<path d="M15.9904 13.9103C13.4329 12.2053 9.26204 12.2053 6.6862 13.9103C5.52204 14.6895 4.88037 15.7437 4.88037 16.8712C4.88037 17.9987 5.52204 19.0437 6.67704 19.8137C7.96037 20.6753 9.64704 21.1062 11.3337 21.1062C13.0204 21.1062 14.707 20.6753 15.9904 19.8137C17.1454 19.0345 17.787 17.9895 17.787 16.8528C17.7779 15.7253 17.1454 14.6803 15.9904 13.9103Z" fill="#1A1E25"/>
</svg>
