<svg width="113" height="102" viewBox="0 0 113 102" xmlns="http://www.w3.org/2000/svg">
<path d="M56.9773 0C28.8832 0 6.11289 22.7703 6.11289 50.8414C6.11289 51.602 6.13594 52.3625 6.15899 53.123C3.20898 53.5148 0.904297 56.027 0.904297 59.0922C0.904297 62.434 3.60078 65.1305 6.94258 65.1305H8.14102C14.3176 86.2645 33.8152 101.706 56.9313 101.706C85.0023 101.706 107.773 78.9355 107.773 50.8645C107.819 22.7703 85.0484 0 56.9773 0Z" fill="#D8B5DD"/>
<path d="M107.749 53.0999C107.772 52.3394 107.795 51.6019 107.795 50.8413C107.795 37.2667 102.471 24.9136 93.7826 15.8101C98.6916 23.7612 101.526 33.1413 101.526 43.1897C101.526 72.0444 78.1338 95.437 49.2791 95.437C39.2307 95.437 29.8736 92.6022 21.8994 87.6933C31.026 96.3819 43.3561 101.706 56.9307 101.706C80.0467 101.706 99.5674 86.2644 105.721 65.1304H106.919C110.261 65.1304 112.958 62.4339 112.958 59.0921C113.004 56.0038 110.722 53.4917 107.749 53.0999Z" fill="#B291B7"/>
<path d="M31.764 37.1055C34.8523 37.1055 37.3414 39.5945 37.3414 42.6828V55.1973C37.3414 58.2855 34.8523 60.7746 31.764 60.7746C28.6757 60.7746 26.1867 58.2855 26.1867 55.1973V42.6828C26.1636 39.5945 28.6757 37.1055 31.764 37.1055ZM82.375 37.1055C85.4632 37.1055 87.9523 39.5945 87.9523 42.6828V55.1973C87.9523 58.2855 85.4632 60.7746 82.375 60.7746C79.2867 60.7746 76.7976 58.2855 76.7976 55.1973V42.6828C76.7976 39.5945 79.2867 37.1055 82.375 37.1055Z" fill="#78577D"/>
</svg>
