<svg width="100%" height="100%" viewBox="0 0 100 100" fill="none" xmlns="http://www.w3.org/2000/svg">
<g id="ChevronDown">
<path id="Vector" fill-rule="evenodd" clip-rule="evenodd" d="M10.2872 29.0375C10.5775 28.7464 10.9224 28.5156 11.302 28.358C11.6817 28.2005 12.0887 28.1194 12.4997 28.1194C12.9108 28.1194 13.3178 28.2005 13.6974 28.358C14.0771 28.5156 14.4219 28.7464 14.7122 29.0375L49.9997 64.3312L85.2872 29.0375C85.5778 28.7469 85.9227 28.5164 86.3023 28.3592C86.6819 28.202 87.0888 28.121 87.4997 28.121C87.9106 28.121 88.3175 28.202 88.6971 28.3592C89.0767 28.5164 89.4217 28.7469 89.7122 29.0375C90.0028 29.328 90.2333 29.673 90.3905 30.0526C90.5477 30.4322 90.6287 30.8391 90.6287 31.25C90.6287 31.6609 90.5477 32.0677 90.3905 32.4474C90.2333 32.827 90.0028 33.1719 89.7122 33.4625L52.2122 70.9625C51.9219 71.2535 51.5771 71.4844 51.1974 71.6419C50.8178 71.7995 50.4108 71.8806 49.9997 71.8806C49.5887 71.8806 49.1817 71.7995 48.802 71.6419C48.4224 71.4844 48.0775 71.2535 47.7872 70.9625L10.2872 33.4625C9.99621 33.1722 9.76531 32.8273 9.60777 32.4477C9.45023 32.068 9.36914 31.661 9.36914 31.25C9.36914 30.8389 9.45023 30.4319 9.60777 30.0523C9.76531 29.6726 9.99621 29.3278 10.2872 29.0375Z" fill="black"/>
</g>
</svg>
