<svg width="100%" height="100%" viewBox="0 0 100 100" fill="none" xmlns="http://www.w3.org/2000/svg">
<g id="ChevronRight">
<path id="Vector" fill-rule="evenodd" clip-rule="evenodd" d="M29.0372 10.2875C29.3275 9.99645 29.6724 9.76556 30.052 9.60802C30.4317 9.45048 30.8387 9.36938 31.2497 9.36938C31.6608 9.36938 32.0678 9.45048 32.4474 9.60802C32.8271 9.76556 33.1719 9.99645 33.4622 10.2875L70.9622 47.7875C71.2532 48.0778 71.4841 48.4226 71.6417 48.8023C71.7992 49.1819 71.8803 49.5889 71.8803 50C71.8803 50.411 71.7992 50.818 71.6417 51.1977C71.4841 51.5773 71.2532 51.9222 70.9622 52.2125L33.4622 89.7125C32.8754 90.2993 32.0796 90.6289 31.2497 90.6289C30.4199 90.6289 29.624 90.2993 29.0372 89.7125C28.4504 89.1257 28.1208 88.3298 28.1208 87.5C28.1208 86.6701 28.4504 85.8743 29.0372 85.2875L64.331 50L29.0372 14.7125C28.7462 14.4222 28.5153 14.0773 28.3578 13.6977C28.2002 13.318 28.1191 12.911 28.1191 12.5C28.1191 12.0889 28.2002 11.6819 28.3578 11.3023C28.5153 10.9226 28.7462 10.5778 29.0372 10.2875Z" fill="black"/>
</g>
</svg>
