<svg width="37" height="36" viewBox="0 0 37 36" fill="none" xmlns="http://www.w3.org/2000/svg">
<g id="&#240;&#159;&#166;&#134; icon &#34;mark github&#34;">
<path id="Vector" fill-rule="evenodd" clip-rule="evenodd" d="M18.4553 0C8.25874 0 0 8.25874 0 18.4553C0 26.6218 5.28283 33.5194 12.6188 35.9647C13.5416 36.1262 13.8876 35.5726 13.8876 35.0881C13.8876 34.6498 13.8645 33.1964 13.8645 31.6508C9.22765 32.5044 8.02805 30.5204 7.65895 29.4823C7.45132 28.9517 6.55163 27.3138 5.76728 26.8755C5.12134 26.5295 4.19858 25.6759 5.74421 25.6528C7.19756 25.6298 8.23567 26.9909 8.58171 27.5445C10.2427 30.3359 12.8956 29.5515 13.9568 29.0671C14.1183 27.8675 14.6027 27.0601 15.1333 26.5987C11.027 26.1373 6.73618 24.5455 6.73618 17.4864C6.73618 15.4794 7.45132 13.8184 8.62785 12.5265C8.4433 12.0651 7.79736 10.1735 8.8124 7.63588C8.8124 7.63588 10.358 7.15142 13.8876 9.52754C15.364 9.1123 16.9327 8.90468 18.5014 8.90468C20.0701 8.90468 21.6388 9.1123 23.1153 9.52754C26.6448 7.12836 28.1905 7.63588 28.1905 7.63588C29.2055 10.1735 28.5596 12.0651 28.375 12.5265C29.5515 13.8184 30.2667 15.4563 30.2667 17.4864C30.2667 24.5686 25.9528 26.1373 21.8465 26.5987C22.5155 27.1754 23.0922 28.2827 23.0922 30.0129C23.0922 32.4813 23.0691 34.4653 23.0691 35.0881C23.0691 35.5726 23.4151 36.1493 24.3379 35.9647C28.0016 34.7279 31.1852 32.3733 33.4406 29.2323C35.696 26.0913 36.9096 22.3221 36.9106 18.4553C36.9106 8.25874 28.6518 0 18.4553 0Z" fill="black"/>
</g>
</svg>
