<svg width="15" height="15" viewBox="0 0 15 15" fill="none" xmlns="http://www.w3.org/2000/svg">
<g id="share-link--share-transmit" clip-path="url(#clip0_371_3030)">
<g id="share-link--share-transmit_2">
<path id="Vector" d="M2.94685 9.91078C4.27825 9.91078 5.35756 8.83147 5.35756 7.50007C5.35756 6.16867 4.27825 5.08936 2.94685 5.08936C1.61545 5.08936 0.536133 6.16867 0.536133 7.50007C0.536133 8.83147 1.61545 9.91078 2.94685 9.91078Z" stroke="black" stroke-linecap="round" stroke-linejoin="round"/>
<path id="Vector_2" d="M12.0543 14.4644C13.3856 14.4644 14.465 13.385 14.465 12.0537C14.465 10.7223 13.3856 9.64294 12.0543 9.64294C10.7229 9.64294 9.64355 10.7223 9.64355 12.0537C9.64355 13.385 10.7229 14.4644 12.0543 14.4644Z" stroke="black" stroke-linecap="round" stroke-linejoin="round"/>
<path id="Vector_3" d="M12.0543 5.3572C13.3856 5.3572 14.465 4.27788 14.465 2.94648C14.465 1.61508 13.3856 0.535767 12.0543 0.535767C10.7229 0.535767 9.64355 1.61508 9.64355 2.94648C9.64355 4.27788 10.7229 5.3572 12.0543 5.3572Z" stroke="black" stroke-linecap="round" stroke-linejoin="round"/>
<path id="Vector_4" d="M5.10059 6.42866L9.90059 4.01794" stroke="black" stroke-linecap="round" stroke-linejoin="round"/>
<path id="Vector_5" d="M5.10059 8.57153L9.90059 10.9822" stroke="black" stroke-linecap="round" stroke-linejoin="round"/>
</g>
</g>
<defs>
<clipPath id="clip0_371_3030">
<rect width="15" height="15" fill="white"/>
</clipPath>
</defs>
</svg>
