<svg width="14" height="14" viewBox="0 0 14 14" fill="none" xmlns="http://www.w3.org/2000/svg">
<path d="M5 6.5C6.38071 6.5 7.5 5.38071 7.5 4C7.5 2.61929 6.38071 1.5 5 1.5C3.61929 1.5 2.5 2.61929 2.5 4C2.5 5.38071 3.61929 6.5 5 6.5Z" stroke="black" stroke-linecap="round" stroke-linejoin="round"/>
<path d="M0.5 13.5001H5H9.5V12.958C9.49204 12.1958 9.29102 11.448 8.91573 10.7846C8.54043 10.1211 8.0031 9.56362 7.35393 9.16413C6.70475 8.76463 5.96491 8.5362 5.20352 8.50015C5.13564 8.49694 5.06778 8.49526 5 8.49512C4.93222 8.49526 4.86436 8.49694 4.79648 8.50015C4.03509 8.5362 3.29525 8.76463 2.64607 9.16413C1.9969 9.56362 1.45957 10.1211 1.08427 10.7846C0.708977 11.448 0.507961 12.1958 0.5 12.958V13.5001Z" stroke="black" stroke-linecap="round" stroke-linejoin="round"/>
<path d="M9 6.5C10.3807 6.5 11.5 5.38071 11.5 4C11.5 2.61929 10.3807 1.5 9 1.5" stroke="black" stroke-linecap="round" stroke-linejoin="round"/>
<path d="M11.5 13.5H13.5V12.9578C13.492 12.1956 13.291 11.4478 12.9157 10.7844C12.5404 10.1209 12.0031 9.5634 11.3539 9.16391C10.9343 8.90566 10.4767 8.7189 10 8.60938" stroke="black" stroke-linecap="round" stroke-linejoin="round"/>
</svg>
